<svg width="32" height="32" viewBox="0 0 32 32" fill="none" xmlns="http://www.w3.org/2000/svg">
<path d="M7 21V15C7 12.6131 7.94821 10.3239 9.63604 8.63604C11.3239 6.94821 13.6131 6 16 6C18.3869 6 20.6761 6.94821 22.364 8.63604C24.0518 10.3239 25 12.6131 25 15V21" stroke="black" stroke-width="2" stroke-linecap="round" stroke-linejoin="round"/>
<path d="M25 22C25 22.5304 24.7893 23.0391 24.4142 23.4142C24.0391 23.7893 23.5304 24 23 24H22C21.4696 24 20.9609 23.7893 20.5858 23.4142C20.2107 23.0391 20 22.5304 20 22V19C20 18.4696 20.2107 17.9609 20.5858 17.5858C20.9609 17.2107 21.4696 17 22 17H25V22ZM7 22C7 22.5304 7.21071 23.0391 7.58579 23.4142C7.96086 23.7893 8.46957 24 9 24H10C10.5304 24 11.0391 23.7893 11.4142 23.4142C11.7893 23.0391 12 22.5304 12 22V19C12 18.4696 11.7893 17.9609 11.4142 17.5858C11.0391 17.2107 10.5304 17 10 17H7V22Z" stroke="black" stroke-width="2" stroke-linecap="round" stroke-linejoin="round"/>
<circle cx="16" cy="16" r="16" fill="#03F480" fill-opacity="0.35"/>
</svg>
