<svg width="30" height="30" viewBox="0 0 30 30" fill="none" xmlns="http://www.w3.org/2000/svg">
<path d="M15 30C23.2843 30 30 23.2843 30 15C30 6.71573 23.2843 0 15 0C6.71573 0 0 6.71573 0 15C0 23.2843 6.71573 30 15 30Z" fill="url(#paint0_radial_268_197)"/>
<path d="M9 18C9 18 11.25 21 15 21C18.75 21 21 18 21 18" stroke="black" stroke-width="2" stroke-linecap="round" stroke-linejoin="round"/>
<g filter="url(#filter0_d_268_197)">
<path d="M10 11.0014L10.0139 11" stroke="white" stroke-width="8" stroke-linecap="round" stroke-linejoin="round"/>
</g>
<path d="M10.4 11L10.414 10.9986" stroke="black" stroke-width="6" stroke-linecap="round" stroke-linejoin="round"/>
<g filter="url(#filter1_d_268_197)">
<path d="M20 11.0014L20.0139 11" stroke="white" stroke-width="8" stroke-linecap="round" stroke-linejoin="round"/>
</g>
<path d="M19.6 11.0014L19.6139 11" stroke="black" stroke-width="6" stroke-linecap="round" stroke-linejoin="round"/>
<path d="M5.37146 7.62697C5.37146 7.62697 5.8311 5.92365 7.5 5C9.29851 4.00461 10.7119 4.67128 10.7119 4.67128" stroke="black" stroke-width="1.5" stroke-linecap="round" stroke-linejoin="round"/>
<path d="M24.3405 7.63C24.3405 7.63 23.8808 5.92669 22.2119 5.00304C20.4134 4.00765 19 4.67431 19 4.67431" stroke="black" stroke-width="1.5" stroke-linecap="round" stroke-linejoin="round"/>
<defs>
<filter id="filter0_d_268_197" x="1.99976" y="2.99969" width="16.0145" height="16.002" filterUnits="userSpaceOnUse" color-interpolation-filters="sRGB">
<feFlood flood-opacity="0" result="BackgroundImageFix"/>
<feColorMatrix in="SourceAlpha" type="matrix" values="0 0 0 0 0 0 0 0 0 0 0 0 0 0 0 0 0 0 127 0" result="hardAlpha"/>
<feOffset/>
<feGaussianBlur stdDeviation="2"/>
<feComposite in2="hardAlpha" operator="out"/>
<feColorMatrix type="matrix" values="0 0 0 0 1 0 0 0 0 0.9 0 0 0 0 0 0 0 0 1 0"/>
<feBlend mode="normal" in2="BackgroundImageFix" result="effect1_dropShadow_268_197"/>
<feBlend mode="normal" in="SourceGraphic" in2="effect1_dropShadow_268_197" result="shape"/>
</filter>
<filter id="filter1_d_268_197" x="11.9998" y="2.99969" width="16.0145" height="16.002" filterUnits="userSpaceOnUse" color-interpolation-filters="sRGB">
<feFlood flood-opacity="0" result="BackgroundImageFix"/>
<feColorMatrix in="SourceAlpha" type="matrix" values="0 0 0 0 0 0 0 0 0 0 0 0 0 0 0 0 0 0 127 0" result="hardAlpha"/>
<feOffset/>
<feGaussianBlur stdDeviation="2"/>
<feComposite in2="hardAlpha" operator="out"/>
<feColorMatrix type="matrix" values="0 0 0 0 1 0 0 0 0 0.839216 0 0 0 0 0 0 0 0 1 0"/>
<feBlend mode="normal" in2="BackgroundImageFix" result="effect1_dropShadow_268_197"/>
<feBlend mode="normal" in="SourceGraphic" in2="effect1_dropShadow_268_197" result="shape"/>
</filter>
<radialGradient id="paint0_radial_268_197" cx="0" cy="0" r="1" gradientUnits="userSpaceOnUse" gradientTransform="translate(20.5 9) rotate(122.735) scale(24.965 23.5729)">
<stop offset="0.0779722" stop-color="#FFC123"/>
<stop offset="0.743611" stop-color="#FF7900"/>
<stop offset="0.873577" stop-color="#FF5C00"/>
<stop offset="1" stop-color="#FF0F00"/>
</radialGradient>
</defs>
</svg>
