<svg width="28" height="28" viewBox="0 0 28 28" fill="none" xmlns="http://www.w3.org/2000/svg">
<path d="M28 13.2222C28.0053 15.2754 27.5256 17.3007 26.6 19.1333C25.5024 21.3294 23.8151 23.1765 21.7271 24.4678C19.6391 25.7591 17.2328 26.4435 14.7778 26.4444C12.7246 26.4498 10.6993 25.9701 8.86665 25.0444L0 28L2.95555 19.1333C2.02989 17.3007 1.5502 15.2754 1.55555 13.2222C1.5565 10.7672 2.24095 8.36091 3.53222 6.27289C4.8235 4.18487 6.67061 2.49759 8.86665 1.40004C10.6993 0.474381 12.7246 -0.00530874 14.7778 4.43147e-05H15.5555C18.7978 0.17892 21.8603 1.54745 24.1564 3.8436C26.4526 6.13974 27.8211 9.20216 28 12.4445V13.2222Z" fill="url(#paint0_radial_780_2381)"/>
<rect x="8" y="16" width="11" height="2" rx="1" fill="#161616"/>
<rect x="8" y="12" width="14" height="2" rx="1" fill="#161616"/>
<rect x="8" y="8" width="13" height="2" rx="1" fill="#161616"/>
<defs>
<radialGradient id="paint0_radial_780_2381" cx="0" cy="0" r="1" gradientUnits="userSpaceOnUse" gradientTransform="translate(19.5 7.5) rotate(107.103) scale(20.4022)">
<stop stop-color="#DBDBDB"/>
<stop offset="0.603323" stop-color="#C1C1C1"/>
<stop offset="1" stop-color="#9A9A9A"/>
</radialGradient>
</defs>
</svg>
