<svg width="32" height="32" viewBox="0 0 32 32" fill="none" xmlns="http://www.w3.org/2000/svg">
<path d="M23 7H9C7.89543 7 7 7.89543 7 9V23C7 24.1046 7.89543 25 9 25H23C24.1046 25 25 24.1046 25 23V9C25 7.89543 24.1046 7 23 7Z" stroke="black" stroke-width="2" stroke-linecap="round" stroke-linejoin="round"/>
<path d="M12.5 14C13.3284 14 14 13.3284 14 12.5C14 11.6716 13.3284 11 12.5 11C11.6716 11 11 11.6716 11 12.5C11 13.3284 11.6716 14 12.5 14Z" stroke="black" stroke-width="2" stroke-linecap="round" stroke-linejoin="round"/>
<path d="M25 19L20 14L9 25" stroke="black" stroke-width="2" stroke-linecap="round" stroke-linejoin="round"/>
<circle cx="16" cy="16" r="16" fill="#F4B103" fill-opacity="0.35"/>
</svg>
