<svg width="473" height="71" viewBox="0 0 473 71" fill="none" xmlns="http://www.w3.org/2000/svg">
<path d="M22.9612 17.9805H0V56.2468H22.9612V17.9805Z" fill="url(#paint0_radial_332_541)"/>
<path fill-rule="evenodd" clip-rule="evenodd" d="M42.8429 0H19.7737V56.2468H39.5473H42.8429H62.6166V35.8435H42.8429V0Z" fill="url(#paint1_radial_332_541)"/>
<path d="M73.8247 56.2468V3.87273H88.1525V56.2468H73.8247ZM99.7162 56.2468V3.87273H119.775C124.086 3.87273 127.882 4.56122 131.164 5.93819C134.446 7.31518 137.189 9.18391 139.393 11.5444C141.597 13.9049 143.263 16.6835 144.389 19.88C145.516 23.0274 146.079 26.396 146.079 29.986C146.079 33.9694 145.443 37.5839 144.169 40.8296C142.945 44.0261 141.181 46.7803 138.879 49.0914C136.577 51.3538 133.809 53.1241 130.576 54.4026C127.343 55.6322 123.743 56.2468 119.775 56.2468H99.7162ZM131.531 29.986C131.531 27.9697 131.262 26.1256 130.723 24.4535C130.184 22.7815 129.4 21.3553 128.372 20.1751C127.392 18.9948 126.167 18.085 124.698 17.4457C123.228 16.7573 121.588 16.413 119.775 16.413H114.044V43.7065H119.775C121.637 43.7065 123.302 43.3622 124.771 42.6738C126.241 41.9853 127.466 41.0263 128.445 39.7969C129.474 38.5674 130.233 37.1167 130.723 35.4447C131.262 33.7726 131.531 31.9531 131.531 29.986ZM192.062 43.7065V56.2468H154.883V3.87273H191.401V16.413H169.211V23.7896H188.168V35.4447H169.211V43.7065H192.062ZM201.296 56.2468V3.87273H225.25C227.797 3.87273 230.148 4.41369 232.303 5.49559C234.459 6.52832 236.296 7.90531 237.814 9.6265C239.382 11.2986 240.606 13.241 241.488 15.454C242.369 17.6178 242.81 19.8062 242.81 22.0192C242.81 25.0682 242.149 27.9205 240.826 30.5761C239.504 33.1825 237.667 35.3217 235.316 36.9938L246.337 56.2468H230.172L220.988 40.1657H215.624V56.2468H201.296ZM215.624 27.6255H224.662C225.543 27.6255 226.352 27.1337 227.086 26.1501C227.87 25.1666 228.262 23.7896 228.262 22.0192C228.262 20.1996 227.821 18.8227 226.939 17.8883C226.058 16.9048 225.176 16.413 224.294 16.413H215.624V27.6255ZM297.829 42.8213C297.829 45.1818 297.339 47.2229 296.36 48.9439C295.38 50.6161 294.033 51.9928 292.319 53.0748C290.604 54.1569 288.596 54.9683 286.294 55.5091C284.04 56.001 281.64 56.2468 279.093 56.2468H253.45V3.87273H283.722C285.535 3.87273 287.175 4.26616 288.645 5.053C290.114 5.83985 291.363 6.87258 292.392 8.15118C293.421 9.38063 294.205 10.8068 294.743 12.4296C295.331 14.0033 295.625 15.6261 295.625 17.2982C295.625 19.7571 294.988 22.1176 293.715 24.3798C292.49 26.5927 290.629 28.2648 288.13 29.3959C291.119 30.281 293.47 31.8301 295.184 34.0431C296.948 36.2069 297.829 39.133 297.829 42.8213ZM283.281 39.8707C283.281 38.5921 282.938 37.5347 282.252 36.6987C281.567 35.8135 280.685 35.3709 279.607 35.3709H267.778V44.1491H279.093C280.269 44.1491 281.248 43.7803 282.032 43.0426C282.865 42.3049 283.281 41.2476 283.281 39.8707ZM267.778 16.1179V24.1585H277.55C278.53 24.1585 279.411 23.888 280.195 23.347C281.028 22.8061 281.444 21.7242 281.444 20.1013C281.444 18.6752 281.101 17.667 280.416 17.0769C279.73 16.4376 278.922 16.1179 277.991 16.1179H267.778ZM330.264 56.6894C326.296 56.6894 322.696 55.9273 319.463 54.4026C316.23 52.878 313.462 50.8863 311.16 48.4275C308.858 45.9195 307.07 43.0672 305.796 39.8707C304.522 36.6741 303.886 33.3792 303.886 29.986C303.886 26.5435 304.547 23.2241 305.87 20.0275C307.192 16.831 309.029 14.0279 311.381 11.6182C313.78 9.15933 316.597 7.21679 319.83 5.79066C323.112 4.31533 326.688 3.57767 330.558 3.57767C334.525 3.57767 338.126 4.33992 341.359 5.86443C344.592 7.38894 347.359 9.4052 349.661 11.9133C351.963 14.4213 353.727 17.2736 354.952 20.4701C356.225 23.6667 356.862 26.937 356.862 30.281C356.862 33.7235 356.201 37.043 354.878 40.2395C353.556 43.3869 351.719 46.1901 349.367 48.6488C347.016 51.0587 344.199 53.0011 340.918 54.4764C337.685 55.9517 334.133 56.6894 330.264 56.6894ZM318.434 30.1335C318.434 31.9039 318.679 33.6251 319.169 35.2972C319.658 36.92 320.393 38.3708 321.373 39.6494C322.353 40.928 323.577 41.9607 325.047 42.7475C326.565 43.5344 328.353 43.9278 330.411 43.9278C332.468 43.9278 334.256 43.5344 335.774 42.7475C337.293 41.9115 338.517 40.8542 339.448 39.5756C340.428 38.2478 341.138 36.7479 341.579 35.0759C342.069 33.4038 342.314 31.7072 342.314 29.986C342.314 28.2156 342.069 26.519 341.579 24.8961C341.089 23.2241 340.33 21.7734 339.301 20.5439C338.321 19.2653 337.072 18.2572 335.554 17.5195C334.085 16.7326 332.345 16.3392 330.337 16.3392C328.28 16.3392 326.492 16.7326 324.974 17.5195C323.504 18.3063 322.279 19.3636 321.3 20.6914C320.32 21.97 319.585 23.4454 319.095 25.1174C318.655 26.7403 318.434 28.4123 318.434 30.1335ZM365.506 56.2468V3.87273H389.459C392.006 3.87273 394.358 4.41369 396.513 5.49559C398.668 6.52832 400.505 7.90531 402.023 9.6265C403.591 11.2986 404.815 13.241 405.697 15.454C406.579 17.6178 407.02 19.8062 407.02 22.0192C407.02 25.0682 406.358 27.9205 405.036 30.5761C403.713 33.1825 401.876 35.3217 399.525 36.9938L410.547 56.2468H394.382L385.197 40.1657H379.834V56.2468H365.506ZM379.834 27.6255H388.871C389.753 27.6255 390.561 27.1337 391.296 26.1501C392.08 25.1666 392.472 23.7896 392.472 22.0192C392.472 20.1996 392.031 18.8227 391.149 17.8883C390.267 16.9048 389.386 16.413 388.504 16.413H379.834V27.6255ZM417.66 56.2468V3.87273H437.718C442.029 3.87273 445.826 4.56122 449.107 5.93819C452.389 7.31518 455.132 9.18391 457.336 11.5444C459.54 13.9049 461.207 16.6835 462.332 19.88C463.457 23.0274 464.022 26.396 464.022 29.986C464.022 33.9694 463.384 37.5839 462.112 40.8296C460.886 44.0261 459.125 46.7803 456.822 49.0914C454.52 51.3538 451.752 53.1241 448.519 54.4026C445.286 55.6322 441.686 56.2468 437.718 56.2468H417.66ZM449.475 29.986C449.475 27.9697 449.205 26.1256 448.666 24.4535C448.128 22.7815 447.344 21.3553 446.315 20.1751C445.336 18.9948 444.111 18.085 442.641 17.4457C441.172 16.7573 439.531 16.413 437.718 16.413H431.987V43.7065H437.718C439.58 43.7065 441.245 43.3622 442.715 42.6738C444.184 41.9853 445.409 41.0263 446.389 39.7969C447.417 38.5674 448.177 37.1167 448.666 35.4447C449.205 33.7726 449.475 31.9531 449.475 29.986Z" fill="#384A6E"/>
<path d="M88.171 3.68832H72.5574V56.2468H88.171V3.68832Z" fill="#384A6E"/>
<defs>
<radialGradient id="paint0_radial_332_541" cx="0" cy="0" r="1" gradientUnits="userSpaceOnUse" gradientTransform="translate(0.820045 36.8364) scale(20.7744 46.8678)">
<stop stop-color="#03D7F4"/>
<stop offset="1" stop-color="#2F80ED"/>
</radialGradient>
<radialGradient id="paint1_radial_332_541" cx="0" cy="0" r="1" gradientUnits="userSpaceOnUse" gradientTransform="translate(44.7653 11.5802) rotate(-90) scale(46.8499 24.6095)">
<stop stop-color="#FFD600"/>
<stop offset="1" stop-color="#FF6B00"/>
</radialGradient>
</defs>
</svg>
