<svg width="32" height="32" viewBox="0 0 32 32" fill="none" xmlns="http://www.w3.org/2000/svg">
<path d="M14.1183 16.8463C14.5103 17.3703 15.0103 17.8039 15.5846 18.1176C16.1589 18.4314 16.7939 18.6179 17.4466 18.6647C18.0993 18.7114 18.7545 18.6173 19.3676 18.3886C19.9807 18.1598 20.5375 17.8019 21.0001 17.3391L23.7382 14.601C24.5695 13.7403 25.0295 12.5876 25.0191 11.391C25.0087 10.1945 24.5288 9.04987 23.6826 8.20376C22.8365 7.35764 21.6919 6.8777 20.4954 6.8673C19.2988 6.8569 18.1461 7.31688 17.2854 8.14817L15.7155 9.7089" stroke="black" stroke-width="2" stroke-linecap="round" stroke-linejoin="round"/>
<path d="M17.769 15.0209C17.3771 14.4968 16.877 14.0633 16.3027 13.7495C15.7284 13.4358 15.0934 13.2492 14.4407 13.2024C13.788 13.1557 13.1328 13.2499 12.5197 13.4786C11.9066 13.7073 11.3498 14.0652 10.8872 14.528L8.14908 17.2661C7.3178 18.1268 6.85782 19.2796 6.86821 20.4761C6.87861 21.6727 7.35855 22.8173 8.20467 23.6634C9.05079 24.5095 10.1954 24.9894 11.3919 24.9998C12.5885 25.0102 13.7412 24.5503 14.6019 23.719L16.1627 22.1582" stroke="black" stroke-width="2" stroke-linecap="round" stroke-linejoin="round"/>
<circle cx="16" cy="16" r="16" fill="#AEAEAE" fill-opacity="0.35"/>
</svg>
