<svg width="32" height="32" viewBox="0 0 32 32" fill="none" xmlns="http://www.w3.org/2000/svg">
<path d="M26.5406 10.42C26.4218 9.94541 26.1799 9.51057 25.8392 9.15941C25.4986 8.80824 25.0713 8.55318 24.6006 8.42C22.8806 8 16.0006 8 16.0006 8C16.0006 8 9.12057 8 7.40057 8.46C6.92982 8.59318 6.50255 8.84824 6.16192 9.19941C5.82129 9.55057 5.57936 9.98541 5.46057 10.46C5.14579 12.2056 4.99181 13.9763 5.00057 15.75C4.98935 17.537 5.14334 19.3213 5.46057 21.08C5.59153 21.5398 5.83888 21.9581 6.17872 22.2945C6.51855 22.6308 6.93939 22.8738 7.40057 23C9.12057 23.46 16.0006 23.46 16.0006 23.46C16.0006 23.46 22.8806 23.46 24.6006 23C25.0713 22.8668 25.4986 22.6118 25.8392 22.2606C26.1799 21.9094 26.4218 21.4746 26.5406 21C26.8529 19.2676 27.0069 17.5103 27.0006 15.75C27.0118 13.963 26.8578 12.1787 26.5406 10.42V10.42Z" stroke="black" stroke-width="2" stroke-linecap="round" stroke-linejoin="round"/>
<path d="M13.7506 19.02L19.5006 15.75L13.7506 12.48V19.02Z" stroke="black" stroke-width="2" stroke-linecap="round" stroke-linejoin="round"/>
<circle cx="16" cy="16" r="16" fill="#F40303" fill-opacity="0.35"/>
</svg>
